<svg width="16" height="16" viewBox="0 0 16 16" fill="none" xmlns="http://www.w3.org/2000/svg">
<path d="M6.66659 12C7.8499 11.9998 8.99912 11.6036 9.93125 10.8747L12.8619 13.8053L13.8046 12.8627L10.8739 9.932C11.6033 8.99977 11.9996 7.85029 11.9999 6.66666C11.9999 3.726 9.60725 1.33333 6.66659 1.33333C3.72592 1.33333 1.33325 3.726 1.33325 6.66666C1.33325 9.60733 3.72592 12 6.66659 12ZM6.66659 2.66666C8.87259 2.66666 10.6666 4.46066 10.6666 6.66666C10.6666 8.87266 8.87259 10.6667 6.66659 10.6667C4.46059 10.6667 2.66659 8.87266 2.66659 6.66666C2.66659 4.46066 4.46059 2.66666 6.66659 2.66666Z" fill="black"/>
</svg>
